<?xml version="1.0" encoding="UTF-8"?> <svg xmlns="http://www.w3.org/2000/svg" width="65.12" height="65.12" viewBox="0 0 65.12 65.12"><g transform="translate(6564 -3200)"><circle cx="32.56" cy="32.56" r="32.56" transform="translate(-6564 3200)" fill="#009fdf"></circle><g transform="translate(-6547 3217)"><path d="M21.294,0H9.679A9.68,9.68,0,0,0,0,9.679V21.294a9.68,9.68,0,0,0,9.679,9.679H21.294a9.68,9.68,0,0,0,9.679-9.679V9.679A9.68,9.68,0,0,0,21.294,0Zm6.775,21.294a6.783,6.783,0,0,1-6.775,6.775H9.679A6.783,6.783,0,0,1,2.9,21.294V9.679A6.783,6.783,0,0,1,9.679,2.9H21.294a6.783,6.783,0,0,1,6.775,6.775Z" fill="#fff"></path><g transform="translate(7.743 7.743)"><path d="M135.743,128a7.743,7.743,0,1,0,7.743,7.743A7.743,7.743,0,0,0,135.743,128Zm0,12.583a4.839,4.839,0,1,1,4.84-4.84A4.846,4.846,0,0,1,135.743,140.583Z" transform="translate(-128 -128)" fill="#fff"></path></g><g transform="translate(22.778 6.131)"><circle cx="1.032" cy="1.032" r="1.032" fill="#fff"></circle></g></g></g></svg> 