<?xml version="1.0" encoding="UTF-8"?> <svg xmlns="http://www.w3.org/2000/svg" width="42.515" height="80" viewBox="0 0 42.515 80"><g transform="translate(-10.208)"><path d="M-464.935,490.868v80h42.515v-80Zm21.257,72.281s-14.361-33.725-14.361-44.7,6.43-19.866,14.361-19.866,14.362,8.894,14.362,19.866S-442.9,563.149-443.678,563.149Z" transform="translate(475.143 -490.868)" fill="none"></path><path d="M-436.289,496.5c-11.74,0-21.257,8.971-21.257,20.038s21.257,45.086,21.257,45.086c1.151,0,21.258-34.019,21.258-45.086S-424.548,496.5-436.289,496.5Zm.039,28.881a9.685,9.685,0,0,1-9.691-9.681,9.686,9.686,0,0,1,9.691-9.683,9.687,9.687,0,0,1,9.691,9.683A9.686,9.686,0,0,1-436.251,525.385Z" transform="translate(467.754 -488.718)" fill="#009fdf"></path><g transform="translate(20.997 16.489)"><ellipse cx="10.098" cy="10.09" rx="10.098" ry="10.09" transform="translate(0.408 0.407)" fill="#40c8f4" stroke="#fff" stroke-width="3"></ellipse></g></g></svg> 