<?xml version="1.0" encoding="UTF-8"?> <svg xmlns="http://www.w3.org/2000/svg" width="65.212" height="80" viewBox="0 0 65.212 80"><g transform="translate(-7.788 -0.134)"><rect width="65" height="80" transform="translate(8 0.134)" fill="none"></rect><path d="M-362.817,496.5a32.562,32.562,0,0,0-32.561,32.563,32.561,32.561,0,0,0,32.561,32.561,32.562,32.562,0,0,0,32.563-32.561A32.563,32.563,0,0,0-362.817,496.5Zm-12.8,24.981a1.426,1.426,0,0,1,.676-.9c-.9-9.006,10.726-15.906,19.147-10.072a11.681,11.681,0,0,1,2.485,2.3,11.7,11.7,0,0,1,1.6,2.547,12.222,12.222,0,0,1,.792,2.387,10.4,10.4,0,0,1,.221,2.833,1.426,1.426,0,0,1,.68.9,3.66,3.66,0,0,1,3.592,3.654,3.659,3.659,0,0,1-3.592,3.656,1.424,1.424,0,0,1-.728.932v1.013c0,5-4.752,5.449-9.26,6.642a1.507,1.507,0,0,1-2.962-.4,1.513,1.513,0,0,1,2.63-1.024c4.354-1.155,8.133-1.394,8.133-5.222v-1.107a1.428,1.428,0,0,1-.659-1.185c0-6.429-.309-7.032.553-7.731a11.308,11.308,0,0,0-3.1-6.025,10.41,10.41,0,0,0-4.592-2.71,10.436,10.436,0,0,0-10.219,2.71,11.314,11.314,0,0,0-3.106,6.025,1.433,1.433,0,0,1,.554,1.116v6.615a1.458,1.458,0,0,1-1.459,1.456,1.436,1.436,0,0,1-1.386-1.109,3.659,3.659,0,0,1-3.6-3.656A3.661,3.661,0,0,1-375.619,521.485Zm4.671.329h0c0,2.915,0,11.765,0,.007v-.007c0-.957,0-1.271,0,0,2.014-11.432,14.308-11.131,16.263.008,0,3.4.568,7.984-3.329,11.636l-2.589.687a2.925,2.925,0,0,0-3.338,1.232c-3.448-.617-6.225-4.03-7.007-8.473Zm22.776,27.841c-30.145,0-30.065.62-31.213-.986-.953-1.328-.155-2.608.535-4.638a12.009,12.009,0,0,1,9.739-8.024,9.97,9.97,0,0,0,5.012,2.3,2.963,2.963,0,0,0,4.752.79c4.82-1.276,5.286-1.283,6.545-1.951,4.99,2.494,5.976,6.769,6.866,9.388A2.366,2.366,0,0,1-348.171,549.655Z" transform="translate(403.165 -488.726)" fill="#009fdf"></path><path d="M-377.7,515.058h0C-377.7,513.787-377.7,514.1-377.7,515.058Z" transform="translate(409.911 -481.969)" fill="#fff"></path><path d="M-377.695,514.826v.007C-377.7,526.591-377.695,517.741-377.695,514.826Z" transform="translate(409.911 -481.737)" fill="#fff"></path><path d="M-370.687,530.725a2.925,2.925,0,0,1,3.338-1.232l2.589-.687c3.9-3.653,3.329-8.236,3.329-11.636-1.955-11.139-14.249-11.44-16.263-.008v5.091C-376.912,526.695-374.135,530.107-370.687,530.725Z" transform="translate(409.911 -484.073)" fill="#40c8f4"></path><path d="M-357.1,526.239c-1.26.667-1.725.674-6.545,1.951a2.963,2.963,0,0,1-4.752-.79,9.971,9.971,0,0,1-5.012-2.3,12.009,12.009,0,0,0-9.739,8.024c-.689,2.029-1.488,3.31-.535,4.638,1.148,1.607,1.068.986,31.213.986a2.366,2.366,0,0,0,2.237-3.12C-351.12,533.008-352.106,528.732-357.1,526.239Z" transform="translate(407.461 -477.818)" fill="#40c8f4"></path><path d="M-380.082,525.522a1.436,1.436,0,0,0,1.386,1.109,1.458,1.458,0,0,0,1.459-1.456v-6.615a1.433,1.433,0,0,0-.554-1.116,11.314,11.314,0,0,1,3.106-6.025,10.436,10.436,0,0,1,10.219-2.71,10.41,10.41,0,0,1,4.592,2.71,11.308,11.308,0,0,1,3.1,6.025c-.862.7-.553,1.3-.553,7.731a1.428,1.428,0,0,0,.659,1.185v1.107c0,3.828-3.778,4.067-8.133,5.222a1.513,1.513,0,0,0-2.63,1.024,1.507,1.507,0,0,0,2.962.4c4.508-1.193,9.26-1.644,9.26-6.642v-1.013a1.424,1.424,0,0,0,.728-.932,3.659,3.659,0,0,0,3.592-3.655,3.66,3.66,0,0,0-3.592-3.654,1.426,1.426,0,0,0-.68-.9,10.4,10.4,0,0,0-.221-2.833,12.218,12.218,0,0,0-.792-2.387,11.7,11.7,0,0,0-1.6-2.547,11.683,11.683,0,0,0-2.485-2.3c-8.421-5.834-20.051,1.067-19.147,10.072a1.426,1.426,0,0,0-.676.9,3.661,3.661,0,0,0-3.6,3.655A3.659,3.659,0,0,0-380.082,525.522Z" transform="translate(407.629 -485.452)" fill="#fff"></path></g></svg> 